<svg id="Layer_1" data-name="Layer 1" xmlns="http://www.w3.org/2000/svg" viewBox="0 0 241 90.16"><defs><style>.cls-1,.cls-5{fill:#ccc;}.cls-1{opacity:0.75;}.cls-17,.cls-18,.cls-19,.cls-2,.cls-3,.cls-4,.cls-6{fill:none;}.cls-2{stroke:#000;stroke-width:0.5px;}.cls-16,.cls-17,.cls-18,.cls-19,.cls-2,.cls-3,.cls-4,.cls-6{stroke-miterlimit:10;}.cls-3,.cls-4{stroke:#b3b3b3;}.cls-4{stroke-dasharray:7.59 7.59;}.cls-6{stroke:#009245;}.cls-19,.cls-6{stroke-width:0.75px;}.cls-7{fill:#009245;}.cls-8{font-size:8px;font-family:MyriadPro-Regular, Myriad Pro;}.cls-9{letter-spacing:-0.05em;}.cls-10{letter-spacing:-0.01em;}.cls-11{letter-spacing:0em;}.cls-12{letter-spacing:-0.01em;}.cls-13{letter-spacing:-0.01em;}.cls-14{letter-spacing:0em;}.cls-15,.cls-16{fill:#a57251;}.cls-16{stroke:#603813;stroke-width:0.25px;}.cls-17,.cls-18{stroke:#231f20;}.cls-18{stroke-dasharray:8.2 8.2;}.cls-19{stroke:#de2a26;}.cls-20{fill:#de2a26;}</style></defs><polygon class="cls-1" points="78 48.08 174 83.08 102.97 83.08 91.29 83.08 78 48.08"/><polyline class="cls-2" points="28.82 30.68 35.08 29.5 29.07 41.96 26.05 35.93"/><rect class="cls-2" x="9.8" y="19.17" width="15.67" height="18.54" rx="1.61" transform="translate(-15.69 31.55) rotate(-63.53)"/><line class="cls-3" x1="39" y1="34.08" x2="42.75" y2="35.47"/><line class="cls-4" x1="49.86" y1="38.12" x2="160.07" y2="79.12"/><line class="cls-3" x1="163.62" y1="80.44" x2="167.37" y2="81.83"/><line class="cls-5" x1="39" y1="34.08" x2="167.37" y2="81.83"/><line class="cls-6" x1="100" y1="67.08" x2="132.27" y2="45.56"/><polygon class="cls-7" points="132.06 49.04 131.5 46.08 128.98 44.42 136 43.08 132.06 49.04"/><text class="cls-8" transform="translate(135.88 36.91)"><tspan class="cls-9">T</tspan><tspan x="3.62" y="0">rue fa</tspan><tspan class="cls-10" x="22.54" y="0">c</tspan><tspan x="26.07" y="0">e no</tspan><tspan class="cls-11" x="40.61" y="0">r</tspan><tspan x="43.26" y="0">mal </tspan><tspan x="8.12" y="9.6">(l</tspan><tspan class="cls-12" x="12.28" y="9.6">o</tspan><tspan class="cls-13" x="16.62" y="9.6">w</tspan><tspan x="22.43" y="9.6">er DNE)</tspan></text><text class="cls-8" transform="translate(155.96 68.91)"><tspan class="cls-10">A</tspan><tspan x="4.85" y="0" xml:space="preserve">ssumed  fa</tspan><tspan class="cls-10" x="40.37" y="0">c</tspan><tspan x="43.9" y="0">e no</tspan><tspan class="cls-14" x="58.44" y="0">r</tspan><tspan x="61.09" y="0">mal</tspan><tspan x="15.44" y="9.6">(higher DNE)</tspan></text><rect class="cls-15" y="83.08" width="241" height="7"/><polyline class="cls-16" points="67 51.19 73 47.08 91.29 52.96 97 62.49 103.69 74.13 109 83.08 60 83.08 56 66.61 61.25 52.96"/><line class="cls-17" x1="91" y1="34.08" x2="91" y2="38.08"/><line class="cls-18" x1="91" y1="46.28" x2="91" y2="74.98"/><line class="cls-17" x1="91" y1="79.08" x2="91" y2="83.08"/><line class="cls-19" x1="91.5" y1="67.58" x2="149.02" y2="67.58"/><polygon class="cls-20" points="146.92 70.36 148.1 67.58 146.92 64.8 153.5 67.58 146.92 70.36"/></svg>